<svg xmlns="http://www.w3.org/2000/svg" height="800" width="1200" viewBox="-4.47372 -4.589175 38.77224 27.53505"><defs><linearGradient x1="0" y1="0" x2="1" y2="0" gradientUnits="userSpaceOnUse" gradientTransform="rotate(24.97 -384.9598 312.3783) scale(20.2555)" spreadMethod="pad" id="a"><stop offset="0" stop-color="#0053a3"/><stop offset=".5071" stop-color="#00b1eb"/><stop offset="1" stop-color="#94c01c"/></linearGradient><linearGradient x1="0" y1="0" x2="1" y2="0" gradientUnits="userSpaceOnUse" gradientTransform="matrix(18.36175 8.5508 -8.5508 18.36175 96.6983 189.971)" spreadMethod="pad" id="b"><stop offset="0" stop-color="#0053a3"/><stop offset=".5071" stop-color="#00b1eb"/><stop offset="1" stop-color="#94c01c"/></linearGradient><linearGradient x1="0" y1="0" x2="1" y2="0" gradientUnits="userSpaceOnUse" gradientTransform="rotate(24.97 -369.809 315.7322) scale(20.25594)" spreadMethod="pad" id="c"><stop offset="0" stop-color="#0053a3"/><stop offset=".5071" stop-color="#00b1eb"/><stop offset="1" stop-color="#94c01c"/></linearGradient><linearGradient x1="0" y1="0" x2="1" y2="0" gradientUnits="userSpaceOnUse" gradientTransform="rotate(24.97 -360.8868 328.1764) scale(16.53668)" spreadMethod="pad" id="d"><stop offset="0" stop-color="#0053a3"/><stop offset=".5071" stop-color="#00b1eb"/><stop offset="1" stop-color="#94c01c"/></linearGradient><linearGradient x1="0" y1="0" x2="1" y2="0" gradientUnits="userSpaceOnUse" gradientTransform="rotate(24.97 -358.4758 315.2325) scale(21.46232)" spreadMethod="pad" id="e"><stop offset="0" stop-color="#0053a3"/><stop offset=".5071" stop-color="#00b1eb"/><stop offset="1" stop-color="#94c01c"/></linearGradient><linearGradient x1="0" y1="0" x2="1" y2="0" gradientUnits="userSpaceOnUse" gradientTransform="rotate(24.97 -379.3837 313.1616) scale(21.4192)" spreadMethod="pad" id="f"><stop offset="0" stop-color="#0053a3"/><stop offset=".5071" stop-color="#00b1eb"/><stop offset="1" stop-color="#94c01c"/></linearGradient></defs><path d="M29.111 5.1375h.0625l.0787.2187c.01.0279.0194.0575.0293.0854h.002c.0102-.028.0184-.0575.0282-.0854l.0776-.2187h.063v.4099h-.049V5.322c0-.0363.004-.0854.007-.1214h-.003l-.032.0931-.0776.2124h-.0342l-.0776-.2124-.0324-.093h-.002c.002.036.006.085.006.1213v.2254h-.0466zm-.2.0437h-.1238v-.0437h.2999v.0437h-.1238v.3662h-.0522zm-.3242.3965a.5815.5815 0 00.1218.1901.5687.5687 0 00.1838.1267.5759.5759 0 00.2296.0459.5645.5645 0 00.2268-.046.5667.5667 0 00.1824-.1266.5766.5766 0 00.122-.1901.638.638 0 00.0442-.2392.6201.6201 0 00-.0441-.2342.5726.5726 0 00-.122-.1884.575.575 0 00-.1825-.1256.5661.5661 0 00-.2268-.046.5745.5745 0 00-.2296.046.577.577 0 00-.1838.1256.5777.5777 0 00-.1218.1884.6202.6202 0 00-.044.2342.638.638 0 00.044.2392m-.1153-.5147a.7037.7037 0 01.1527-.2212.7113.7113 0 01.4978-.2004.7.7 0 01.2716.0533.707.707 0 01.2234.147.72.72 0 01.1517.2213.6761.6761 0 01.056.2755c0 .1013-.0186.1947-.056.2805a.7242.7242 0 01-.1517.223.6848.6848 0 01-.2234.147.7077.7077 0 01-.2716.0526.7124.7124 0 01-.2727-.0526.6878.6878 0 01-.225-.147.7094.7094 0 01-.1528-.223c-.0374-.0857-.0561-.1792-.0561-.2805a.6761.6761 0 01.056-.2755" fill="#94c11b"/><path d="M92.6192 188.1504c-.4452.126-.6777.3683-.6777.8425v4.2626h1.3173v-4.0686c.4939-.1358 1.027-.1842 1.695-.1842v-1.1042c-1.0364 0-1.6368.0582-2.3346.252" fill="url(#a)" transform="translate(-91.9415 -181.1865)"/><path d="M95.4866 190.611c0 1.8013 1.0558 2.7027 2.6444 2.7027.5616 0 1.0463-.0974 1.7145-.3101l.5136-.1648-.1742-1.0075-.5137.1651c-.5715.1743-1.0072.2417-1.4432.2417-.804 0-1.366-.3775-1.4337-1.2009h3.0706c.3873 0 .5616-.1838.5616-.562 0-1.7723-.9588-2.6056-2.431-2.6056-1.3465 0-2.509.8428-2.509 2.7414m2.4702-1.7727c.8234 0 1.172.581 1.172 1.288h-2.3443c.0484-.794.4749-1.288 1.1723-1.288" fill="url(#b)" transform="translate(-91.9415 -181.1865)"/><path d="M106.8294 190.611c0 1.8013 1.0555 2.7027 2.6444 2.7027.5617 0 1.046-.0974 1.7145-.3101l.5133-.1648-.1742-1.0075-.5133.1651c-.5719.1743-1.0076.2417-1.4436.2417-.8036 0-1.3656-.3775-1.4337-1.2009h3.071c.3873 0 .5616-.1838.5616-.562 0-1.7723-.9589-2.6056-2.431-2.6056-1.3466 0-2.509.8428-2.509 2.7414m2.4698-1.7727c.8238 0 1.1723.581 1.1723 1.288h-2.3442c.0483-.794.4745-1.288 1.172-1.288" fill="url(#c)" transform="translate(-91.9415 -181.1865)"/><path d="M120.4029 187.9373v5.3182h1.3173l.0003-.0004v-5.3178h-.0003z" fill="url(#d)" transform="translate(-91.9415 -181.1865)"/><path d="M103.545 184.6657l-.0514-.4981a.5303.5303 0 00-.5821-.4735.531.531 0 00-.4735.5825l.1902 1.8457a.5302.5302 0 00.1933.357.5282.5282 0 00.3348.1193c.018 0 .036-.001.0543-.003l1.851-.1909a.531.531 0 00.4735-.5828.5298.5298 0 00-.5821-.4734l-.3539.0367c1.8087-2.0447 4.473-3.1207 7.14-2.8353 4.2318.452 7.1161 4.2044 6.3386 8.3894-.0564.3041-.1414.6061-.2395.8918l-1.0224-3.448c-.087-.3105-.339-.4748-.7263-.4748-.3973 0-.6393.1548-.7363.4748l-1.027 3.4096-.6198-3.8555h-1.385l.9688 4.737c.0868.4358.4067.6778.9295.6778.5038 0 .8139-.2036.9494-.6199l.901-2.7996.8329 2.7707c.126.4262.3489.6586.9687.6586.3958 0 .685-.1735.8442-.4734.2134-.4014.4544-1.0802.586-1.7903.9122-4.9075-2.371-9.33-7.3191-9.8588a9.3339 9.3339 0 00-.991-.0529c-2.82 0-5.5516 1.2743-7.4468 3.4791" fill="url(#e)" transform="translate(-91.9415 -181.1865)"/><path d="M101.9957 188.1409c-.386.109-.5528.302-.665.6593-.1288.4297-.186.7585-.2512 1.2147-.7073 4.9247 2.7718 9.1909 7.7544 9.5094 2.8568.1824 5.7051-.9684 7.7315-3.0988l.0452.4371a.5305.5305 0 00.527.4763.5309.5309 0 00.5285-.5854l-.1901-1.8458a.5305.5305 0 00-.5824-.473l-1.8515.1908a.5312.5312 0 00-.4734.5824c.0303.2914.291.5045.5828.4734l.412-.0427c-1.7282 1.7706-4.1296 2.7242-6.5408 2.5704-4.2612-.2724-7.2376-3.911-6.6347-8.1104.0441-.309.1337-.6156.236-.9183 0 0 .6304-.1513 1.028-.1485.688.005.901.3874.901.8816v3.3419h1.3272v-3.4583c0-1.114-.6104-1.9085-2.1601-1.9085-.465 0-.9881.0487-1.7244.2522" fill="url(#f)" transform="translate(-91.9415 -181.1865)"/></svg>